<svg xmlns="http://www.w3.org/2000/svg" viewBox="0 0 267.18 267.18"><path fill="#526e4e" fill-rule="nonzero" d="M267.18 133.59C267.18 207.37 207.37 267.18 133.59 267.18C59.81 267.18 0.00 207.37 0.00 133.59C0.00 59.81 59.81 0.00 133.59 0.00C207.37 0.00 267.18 59.81 267.18 133.59z"/><path fill="#000000" fill-rule="nonzero" d="M113.66 169.34C109.47 172.11 104.97 173.73 100.00 173.94C96.96 174.06 93.99 173.87 90.87 173.02C103.27 170.35 111.56 159.19 110.75 146.57L110.70 101.74C110.69 97.08 106.63 93.79 102.36 93.26L133.14 93.21L134.98 93.34C130.56 93.61 127.00 97.01 126.52 101.55L126.47 145.74C126.46 148.76 125.80 151.62 124.95 154.45C123.10 160.68 119.10 165.74 113.66 169.34z"/><path fill="#000000" fill-rule="nonzero" d="M74.87 142.55C80.70 135.93 90.93 136.01 96.67 142.60C101.76 148.43 101.33 157.20 95.82 162.53C90.26 167.92 81.36 167.96 75.77 162.62C70.18 157.30 69.66 148.47 74.87 142.55z"/><path fill="#ffffff" fill-rule="nonzero" d="M37.70 121.38C37.70 121.33 37.67 121.67 37.62 122.38C37.52 123.80 37.47 125.17 37.47 126.50C37.47 126.64 37.50 126.94 37.55 127.40C37.60 127.85 37.62 128.40 37.62 129.03L37.62 129.36C37.62 129.68 37.52 129.84 37.33 129.84C37.13 129.84 36.96 129.66 36.81 129.29C36.47 128.48 36.13 127.95 35.78 127.71C34.02 129.25 31.90 130.03 29.42 130.03C25.82 130.03 22.83 128.77 20.47 126.26C18.10 123.74 16.92 120.57 16.92 116.75C16.92 112.90 18.00 109.76 20.17 107.32C22.34 104.88 25.14 103.66 28.57 103.66C29.83 103.66 30.82 103.76 31.57 103.97C32.32 104.18 33.25 104.60 34.35 105.24C34.89 105.56 35.29 105.72 35.56 105.72C35.78 105.72 35.99 105.52 36.19 105.13C36.51 104.44 36.76 104.10 36.96 104.10C37.16 104.10 37.25 104.20 37.25 104.39C37.25 104.49 37.23 104.65 37.18 104.87C36.91 106.05 36.78 108.25 36.78 111.49C36.78 111.96 36.74 112.23 36.67 112.30C36.59 112.37 36.49 112.41 36.37 112.41C36.13 112.41 35.97 112.18 35.89 111.71C35.57 109.75 35.12 108.29 34.53 107.33C33.33 105.37 31.44 104.39 28.87 104.39C26.88 104.39 25.31 105.05 24.16 106.38C22.08 108.76 21.04 112.24 21.04 116.82C21.04 120.92 21.89 124.09 23.61 126.35C25.11 128.31 27.09 129.29 29.57 129.29C30.84 129.29 32.01 128.98 33.06 128.35C34.12 127.73 34.92 126.88 35.49 125.80C36.13 124.55 36.58 123.19 36.85 121.71C36.95 121.13 37.11 120.83 37.33 120.83C37.57 120.83 37.70 121.02 37.70 121.38z"/><path fill="#ffffff" fill-rule="nonzero" d="M53.15 120.54C52.75 119.43 52.08 117.61 51.16 115.06L49.39 109.96C48.36 112.67 47.12 116.20 45.67 120.54L53.15 120.54M63.11 129.35C63.11 129.55 62.92 129.66 62.56 129.66C62.31 129.66 62.09 129.65 61.90 129.62L57.22 129.48L52.55 129.62C52.38 129.65 52.20 129.66 52.00 129.66C51.51 129.66 51.27 129.53 51.27 129.27C51.27 128.99 51.60 128.85 52.26 128.85C54.42 128.83 55.50 128.61 55.50 128.20C55.50 128.18 55.47 128.08 55.42 127.91L55.12 126.94L54.93 126.43C54.71 125.67 54.17 123.99 53.31 121.38L45.45 121.38C43.98 125.31 43.25 127.56 43.25 128.15C43.25 128.49 43.40 128.70 43.69 128.78C43.76 128.80 44.38 128.85 45.53 128.92C46.24 128.95 46.60 129.07 46.60 129.29C46.60 129.54 46.28 129.66 45.64 129.66C44.51 129.66 43.20 129.61 41.70 129.51C41.34 129.49 40.96 129.48 40.56 129.48C40.17 129.48 39.79 129.52 39.42 129.60C39.23 129.64 39.07 129.66 38.95 129.66C38.60 129.66 38.43 129.55 38.43 129.33C38.43 129.11 38.82 128.98 39.59 128.96C40.36 128.93 40.92 128.82 41.26 128.61C41.61 128.40 41.88 128.00 42.07 127.41C45.23 118.35 47.79 111.08 49.77 105.60C49.83 105.31 49.94 104.98 50.12 104.62L50.27 103.95C50.35 103.68 50.44 103.55 50.57 103.55C50.64 103.55 50.70 103.62 50.75 103.77C51.07 104.72 51.79 106.72 52.92 109.76C53.80 112.14 56.00 118.11 59.50 127.67C59.70 128.23 59.95 128.58 60.26 128.73C60.56 128.88 61.20 128.97 62.15 129.00C62.79 129.02 63.11 129.14 63.11 129.35z"/><path fill="#ffffff" fill-rule="nonzero" d="M78.70 122.41C78.70 124.52 77.90 126.32 76.29 127.80C74.69 129.29 72.76 130.03 70.50 130.03C69.18 130.03 67.60 129.62 65.76 128.81C65.27 128.59 64.90 128.48 64.65 128.48C64.36 128.48 64.18 128.82 64.10 129.50C64.08 129.85 63.92 130.03 63.62 130.03C63.38 130.03 63.26 129.88 63.26 129.59C63.26 129.39 63.27 129.24 63.29 129.14C63.49 127.65 63.59 126.26 63.59 124.99C63.59 124.74 63.56 124.06 63.51 122.93C63.49 122.78 63.48 122.59 63.48 122.34C63.48 121.97 63.62 121.79 63.92 121.79C64.16 121.79 64.33 122.09 64.43 122.68C65.07 127.09 67.14 129.29 70.65 129.29C72.14 129.29 73.30 128.87 74.12 128.02C74.94 127.18 75.36 125.98 75.36 124.44C75.36 123.06 74.96 121.89 74.16 120.92C73.36 119.96 72.00 118.99 70.06 118.04C67.73 116.89 66.11 115.77 65.20 114.69C64.30 113.61 63.84 112.28 63.84 110.68C63.84 108.65 64.50 106.97 65.81 105.64C67.12 104.32 68.78 103.66 70.80 103.66C71.63 103.66 72.78 103.94 74.25 104.50C74.77 104.70 75.15 104.80 75.39 104.80C75.66 104.80 75.84 104.75 75.93 104.65C76.01 104.55 76.09 104.30 76.16 103.88C76.21 103.63 76.35 103.51 76.57 103.51C76.81 103.51 76.94 103.66 76.94 103.95C76.94 104.15 76.92 104.30 76.90 104.39C76.83 104.98 76.79 105.69 76.79 106.53C76.79 107.70 76.85 108.64 76.97 109.32L77.01 109.91C77.04 110.18 76.92 110.31 76.68 110.31C76.41 110.31 76.23 110.03 76.13 109.47C75.86 108.02 75.22 106.81 74.22 105.85C73.21 104.88 72.08 104.39 70.83 104.39C69.61 104.39 68.63 104.79 67.91 105.57C67.18 106.35 66.82 107.42 66.82 108.77C66.82 110.34 67.35 111.60 68.40 112.56C68.99 113.10 70.27 113.86 72.23 114.84C74.53 115.99 76.19 117.16 77.19 118.35C78.20 119.54 78.70 120.89 78.70 122.41z"/><path fill="#ffffff" fill-rule="nonzero" d="M93.60 120.54C93.20 119.43 92.54 117.61 91.62 115.06L89.85 109.96C88.82 112.67 87.57 116.20 86.12 120.54L93.60 120.54M103.56 129.35C103.56 129.55 103.38 129.66 103.01 129.66C102.77 129.66 102.55 129.65 102.35 129.62L97.68 129.48L93.01 129.62C92.84 129.65 92.65 129.66 92.46 129.66C91.97 129.66 91.72 129.53 91.72 129.27C91.72 128.99 92.05 128.85 92.71 128.85C94.87 128.83 95.95 128.61 95.95 128.20C95.95 128.18 95.93 128.08 95.88 127.91L95.58 126.94L95.39 126.43C95.17 125.67 94.63 123.99 93.77 121.38L85.91 121.38C84.44 125.31 83.70 127.56 83.70 128.15C83.70 128.49 83.85 128.70 84.15 128.78C84.22 128.80 84.83 128.85 85.98 128.92C86.70 128.95 87.05 129.07 87.05 129.29C87.05 129.54 86.73 129.66 86.09 129.66C84.97 129.66 83.65 129.61 82.16 129.51C81.79 129.49 81.41 129.48 81.02 129.48C80.63 129.48 80.25 129.52 79.88 129.60C79.68 129.64 79.52 129.66 79.40 129.66C79.06 129.66 78.89 129.55 78.89 129.33C78.89 129.11 79.27 128.98 80.04 128.96C80.82 128.93 81.37 128.82 81.72 128.61C82.06 128.40 82.33 128.00 82.53 127.41C85.68 118.35 88.25 111.08 90.23 105.60C90.29 105.31 90.40 104.98 90.57 104.62L90.73 103.95C90.80 103.68 90.90 103.55 91.02 103.55C91.10 103.55 91.16 103.62 91.21 103.77C91.52 104.72 92.25 106.72 93.38 109.76C94.26 112.14 96.45 118.11 99.96 127.67C100.16 128.23 100.41 128.58 100.71 128.73C101.02 128.88 101.65 128.97 102.61 129.00C103.25 129.02 103.56 129.14 103.56 129.35z"/><path fill="#ffffff" fill-rule="nonzero" d="M158.51 121.38C158.51 121.33 158.48 121.67 158.43 122.38C158.34 123.80 158.29 125.17 158.29 126.50C158.29 126.64 158.31 126.94 158.36 127.40C158.41 127.85 158.43 128.40 158.43 129.03L158.43 129.36C158.43 129.68 158.34 129.84 158.14 129.84C157.94 129.84 157.77 129.66 157.62 129.29C157.28 128.48 156.94 127.95 156.59 127.71C154.83 129.25 152.71 130.03 150.23 130.03C146.63 130.03 143.64 128.77 141.28 126.26C138.91 123.74 137.73 120.57 137.73 116.75C137.73 112.90 138.81 109.76 140.98 107.32C143.15 104.88 145.95 103.66 149.39 103.66C150.64 103.66 151.64 103.76 152.38 103.97C153.13 104.18 154.06 104.60 155.16 105.24C155.70 105.56 156.10 105.72 156.37 105.72C156.59 105.72 156.80 105.52 157.00 105.13C157.32 104.44 157.58 104.10 157.77 104.10C157.97 104.10 158.07 104.20 158.07 104.39C158.07 104.49 158.04 104.65 157.99 104.87C157.72 106.05 157.59 108.25 157.59 111.49C157.59 111.96 157.55 112.23 157.48 112.30C157.40 112.37 157.31 112.41 157.18 112.41C156.94 112.41 156.78 112.18 156.71 111.71C156.39 109.75 155.93 108.29 155.34 107.33C154.14 105.37 152.26 104.39 149.68 104.39C147.69 104.39 146.13 105.05 144.97 106.38C142.89 108.76 141.85 112.24 141.85 116.82C141.85 120.92 142.70 124.09 144.42 126.35C145.92 128.31 147.90 129.29 150.38 129.29C151.65 129.29 152.82 128.98 153.87 128.35C154.93 127.73 155.74 126.88 156.30 125.80C156.94 124.55 157.39 123.19 157.66 121.71C157.76 121.13 157.92 120.83 158.14 120.83C158.38 120.83 158.51 121.02 158.51 121.38z"/><path fill="#ffffff" fill-rule="nonzero" d="M180.94 117.16C180.94 112.66 180.02 109.15 178.18 106.64C177.03 105.07 175.43 104.28 173.37 104.28C171.40 104.28 169.88 104.88 168.81 106.09C166.82 108.30 165.83 111.91 165.83 116.90C165.83 120.86 166.52 123.93 167.90 126.12C169.29 128.31 171.23 129.40 173.73 129.40C176.06 129.40 177.82 128.37 178.99 126.30C180.29 124.02 180.94 120.97 180.94 117.16M185.06 116.97C185.06 120.62 183.96 123.71 181.77 126.24C179.58 128.76 176.88 130.03 173.70 130.03C170.31 130.03 167.47 128.75 165.16 126.18C162.86 123.62 161.71 120.46 161.71 116.71C161.71 112.89 162.82 109.76 165.04 107.32C167.25 104.88 170.09 103.66 173.55 103.66C176.81 103.66 179.54 104.93 181.75 107.48C183.96 110.03 185.06 113.20 185.06 116.97z"/><path fill="#ffffff" fill-rule="nonzero" d="M203.85 122.41C203.85 124.52 203.05 126.32 201.44 127.80C199.84 129.29 197.91 130.03 195.65 130.03C194.33 130.03 192.75 129.62 190.91 128.81C190.42 128.59 190.05 128.48 189.80 128.48C189.51 128.48 189.33 128.82 189.25 129.50C189.23 129.85 189.07 130.03 188.77 130.03C188.53 130.03 188.41 129.88 188.41 129.59C188.41 129.39 188.42 129.24 188.44 129.14C188.64 127.65 188.74 126.26 188.74 124.99C188.74 124.74 188.71 124.06 188.66 122.93C188.64 122.78 188.63 122.59 188.63 122.34C188.63 121.97 188.77 121.79 189.07 121.79C189.31 121.79 189.49 122.09 189.58 122.68C190.22 127.09 192.29 129.29 195.80 129.29C197.29 129.29 198.45 128.87 199.27 128.02C200.10 127.18 200.51 125.98 200.51 124.44C200.51 123.06 200.11 121.89 199.31 120.92C198.51 119.96 197.15 118.99 195.21 118.04C192.88 116.89 191.26 115.77 190.36 114.69C189.45 113.61 189.00 112.28 189.00 110.68C189.00 108.65 189.65 106.97 190.96 105.64C192.27 104.32 193.94 103.66 195.95 103.66C196.78 103.66 197.93 103.94 199.40 104.50C199.92 104.70 200.30 104.80 200.54 104.80C200.81 104.80 200.99 104.75 201.08 104.65C201.16 104.55 201.24 104.30 201.32 103.88C201.36 103.63 201.50 103.51 201.72 103.51C201.97 103.51 202.09 103.66 202.09 103.95C202.09 104.15 202.08 104.30 202.05 104.39C201.98 104.98 201.94 105.69 201.94 106.53C201.94 107.70 202.00 108.64 202.12 109.32L202.16 109.91C202.19 110.18 202.08 110.31 201.83 110.31C201.56 110.31 201.38 110.03 201.28 109.47C201.01 108.02 200.37 106.81 199.37 105.85C198.36 104.88 197.23 104.39 195.98 104.39C194.76 104.39 193.78 104.79 193.06 105.57C192.34 106.35 191.97 107.42 191.97 108.77C191.97 110.34 192.50 111.60 193.56 112.56C194.14 113.10 195.42 113.86 197.38 114.84C199.69 115.99 201.34 117.16 202.35 118.35C203.35 119.54 203.85 120.89 203.85 122.41z"/><path fill="#ffffff" fill-rule="nonzero" d="M225.92 110.61C225.92 110.93 225.77 111.09 225.48 111.09C225.18 111.09 224.98 110.77 224.85 110.13C224.80 109.69 224.76 109.25 224.71 108.81C224.53 107.92 224.25 107.18 223.86 106.56C223.35 105.75 222.50 105.24 221.32 105.02C220.56 104.87 219.95 104.81 219.48 104.83C218.33 104.87 217.63 104.89 217.39 104.91L217.39 127.12C217.39 128.00 217.62 128.56 218.09 128.78C218.33 128.90 219.02 128.97 220.15 129.00C220.44 129.02 220.59 129.12 220.59 129.31C220.59 129.52 220.39 129.62 220.00 129.62C219.80 129.62 219.63 129.61 219.48 129.59C218.01 129.54 216.97 129.51 216.36 129.51C215.55 129.51 214.79 129.53 214.08 129.57C213.37 129.60 212.46 129.62 211.36 129.62C210.79 129.62 210.51 129.52 210.51 129.33C210.51 129.11 211.04 128.98 212.09 128.96C212.85 128.96 213.34 128.80 213.56 128.48C213.69 128.28 213.75 127.78 213.75 126.97L213.75 104.91C211.32 104.93 209.81 105.05 209.22 105.28C207.68 105.84 206.77 107.35 206.50 109.80C206.43 110.53 206.26 110.90 205.99 110.90C205.69 110.90 205.55 110.65 205.55 110.13C205.55 109.86 205.56 109.59 205.58 109.32L205.66 108.48C205.73 107.35 205.84 105.86 205.99 104.03L207.64 104.03L215.14 104.14C216.03 104.16 217.40 104.16 219.26 104.14L225.37 104.03C225.42 105.40 225.58 107.43 225.85 110.13C225.85 110.20 225.86 110.30 225.88 110.41C225.91 110.52 225.92 110.58 225.92 110.61z"/><path fill="#ffffff" fill-rule="nonzero" d="M240.30 120.54C239.90 119.43 239.24 117.61 238.32 115.06L236.55 109.96C235.52 112.67 234.28 116.20 232.82 120.54L240.30 120.54M250.27 129.35C250.27 129.55 250.08 129.66 249.72 129.66C249.47 129.66 249.25 129.65 249.05 129.62L244.38 129.48L239.71 129.62C239.54 129.65 239.36 129.66 239.16 129.66C238.67 129.66 238.42 129.53 238.42 129.27C238.42 128.99 238.76 128.85 239.42 128.85C241.57 128.83 242.65 128.61 242.65 128.20C242.65 128.18 242.63 128.08 242.58 127.91L242.28 126.94L242.09 126.43C241.87 125.67 241.33 123.99 240.47 121.38L232.61 121.38C231.14 125.31 230.41 127.56 230.41 128.15C230.41 128.49 230.55 128.70 230.85 128.78C230.92 128.80 231.53 128.85 232.69 128.92C233.40 128.95 233.75 129.07 233.75 129.29C233.75 129.54 233.43 129.66 232.80 129.66C231.67 129.66 230.36 129.61 228.86 129.51C228.49 129.49 228.11 129.48 227.72 129.48C227.33 129.48 226.95 129.52 226.58 129.60C226.39 129.64 226.23 129.66 226.10 129.66C225.76 129.66 225.59 129.55 225.59 129.33C225.59 129.11 225.98 128.98 226.75 128.96C227.52 128.93 228.08 128.82 228.42 128.61C228.76 128.40 229.03 128.00 229.23 127.41C232.38 118.35 234.95 111.08 236.93 105.60C236.99 105.31 237.10 104.98 237.27 104.62L237.43 103.95C237.51 103.68 237.60 103.55 237.73 103.55C237.80 103.55 237.86 103.62 237.91 103.77C238.23 104.72 238.95 106.72 240.08 109.76C240.96 112.14 243.16 118.11 246.66 127.67C246.86 128.23 247.11 128.58 247.42 128.73C247.72 128.88 248.35 128.97 249.31 129.00C249.95 129.02 250.27 129.14 250.27 129.35z"/><path fill="#ffffff" fill-rule="nonzero" d="M144.53 142.09C144.17 143.41 143.30 144.48 141.62 144.48C139.74 144.48 138.41 143.08 138.41 140.57C138.41 138.51 139.50 136.60 141.71 136.60C143.62 136.60 144.40 137.96 144.53 139.01L143.77 139.01C143.54 138.14 142.97 137.31 141.70 137.31C140.10 137.31 139.20 138.66 139.20 140.54C139.20 142.33 140.04 143.77 141.62 143.77C142.72 143.77 143.38 143.21 143.77 142.09L144.53 142.09z"/><path fill="#ffffff" fill-rule="nonzero" d="M151.28 139.97C151.27 138.48 150.46 137.31 148.98 137.31C147.44 137.31 146.73 138.39 146.56 139.97L151.28 139.97M146.52 140.63C146.53 142.57 147.51 143.77 148.95 143.77C150.36 143.77 150.85 142.97 151.12 142.36L151.88 142.36C151.57 143.35 150.77 144.48 148.92 144.48C146.64 144.48 145.75 142.51 145.75 140.60C145.75 138.45 146.82 136.60 149.01 136.60C151.33 136.60 152.06 138.60 152.06 140.01C152.06 140.22 152.06 140.43 152.05 140.63L146.52 140.63z"/><path fill="#ffffff" fill-rule="nonzero" d="M153.90 138.68C153.90 138.02 153.90 137.38 153.88 136.78L154.62 136.78C154.65 137.02 154.66 138.00 154.65 138.21C154.98 137.44 155.59 136.60 157.14 136.60C158.48 136.60 159.66 137.35 159.66 139.43L159.66 144.29L158.91 144.29L158.91 139.55C158.91 138.21 158.36 137.34 157.05 137.34C155.26 137.34 154.65 138.83 154.65 140.46L154.65 144.29L153.90 144.29L153.90 138.68z"/><path fill="#ffffff" fill-rule="nonzero" d="M160.96 136.78L162.36 136.78L162.36 134.44L163.11 134.44L163.11 136.78L164.89 136.78L164.89 137.49L163.11 137.49L163.11 142.37C163.11 143.21 163.29 143.69 164.01 143.69C164.23 143.69 164.55 143.68 164.79 143.60L164.79 144.26C164.53 144.37 164.17 144.40 163.86 144.40C162.90 144.40 162.36 143.92 162.36 142.72L162.36 137.49L160.96 137.49L160.96 136.78z"/><path fill="#ffffff" fill-rule="nonzero" d="M166.29 138.83C166.29 137.56 166.28 137.02 166.28 136.78L167.01 136.78C167.03 137.02 167.04 137.50 167.04 138.47C167.48 137.34 168.44 136.66 169.66 136.60L169.66 137.41C168.09 137.52 167.04 138.60 167.04 140.39L167.04 144.29L166.29 144.29L166.29 138.83z"/><path fill="#ffffff" fill-rule="nonzero" d="M171.24 140.54C171.24 142.33 172.20 143.77 173.79 143.77C175.41 143.77 176.33 142.43 176.33 140.54C176.33 138.77 175.43 137.31 173.76 137.31C172.05 137.31 171.24 138.74 171.24 140.54M177.12 140.52C177.12 142.61 175.97 144.48 173.73 144.48C171.70 144.48 170.44 142.81 170.44 140.54C170.44 138.39 171.63 136.60 173.80 136.60C175.80 136.60 177.12 138.17 177.12 140.52z"/><path fill="#ffffff" fill-rule="nonzero" d="M183.09 140.60C183.09 142.66 184.16 143.77 185.45 143.77C187.43 143.77 187.97 142.40 187.97 140.36C187.97 138.42 187.51 137.31 185.58 137.31C184.10 137.31 183.09 138.50 183.09 140.60M188.69 133.22L188.69 142.13C188.69 142.85 188.69 143.54 188.71 144.29L187.99 144.29C187.96 144.11 187.94 143.41 187.94 143.03C187.57 143.95 186.73 144.47 185.42 144.47C183.47 144.47 182.29 142.88 182.29 140.63C182.29 138.32 183.57 136.60 185.61 136.60C187.12 136.60 187.72 137.25 187.94 137.73L187.94 133.22L188.69 133.22z"/><path fill="#ffffff" fill-rule="nonzero" d="M196.09 139.97C196.07 138.48 195.26 137.31 193.79 137.31C192.24 137.31 191.53 138.39 191.37 139.97L196.09 139.97M191.32 140.63C191.34 142.57 192.32 143.77 193.76 143.77C195.17 143.77 195.65 142.97 195.92 142.36L196.69 142.36C196.37 143.35 195.58 144.48 193.73 144.48C191.44 144.48 190.56 142.51 190.56 140.60C190.56 138.45 191.63 136.60 193.82 136.60C196.13 136.60 196.87 138.60 196.87 140.01C196.87 140.22 196.87 140.43 196.85 140.63L191.32 140.63z"/><path fill="#ffffff" fill-rule="nonzero" d="M207.54 139.97C207.52 138.48 206.71 137.31 205.24 137.31C203.69 137.31 202.98 138.39 202.82 139.97L207.54 139.97M202.77 140.63C202.79 142.57 203.77 143.77 205.21 143.77C206.62 143.77 207.10 142.97 207.37 142.36L208.14 142.36C207.82 143.35 207.02 144.48 205.18 144.48C202.89 144.48 202.01 142.51 202.01 140.60C202.01 138.45 203.07 136.60 205.27 136.60C207.58 136.60 208.32 138.60 208.32 140.01C208.32 140.22 208.32 140.43 208.30 140.63L202.77 140.63z"/><path fill="#ffffff" fill-rule="nonzero" d="M210.18 136.78C211.40 140.22 212.24 142.57 212.52 143.53L212.54 143.53C212.70 142.97 213.55 140.73 215.00 136.78L215.80 136.78L212.96 144.29L212.06 144.29L209.39 136.78L210.18 136.78z"/><path fill="#ffffff" fill-rule="nonzero" d="M222.20 139.97C222.19 138.48 221.37 137.31 219.90 137.31C218.35 137.31 217.65 138.39 217.48 139.97L222.20 139.97M217.44 140.63C217.45 142.57 218.43 143.77 219.87 143.77C221.28 143.77 221.76 142.97 222.03 142.36L222.80 142.36C222.49 143.35 221.69 144.48 219.84 144.48C217.56 144.48 216.67 142.51 216.67 140.60C216.67 138.45 217.74 136.60 219.93 136.60C222.25 136.60 222.98 138.60 222.98 140.01C222.98 140.22 222.98 140.43 222.97 140.63L217.44 140.63z"/><path fill="#ffffff" fill-rule="nonzero" d="M224.82 138.68C224.82 138.02 224.82 137.38 224.80 136.78L225.54 136.78C225.57 137.02 225.58 138.00 225.57 138.21C225.90 137.44 226.51 136.60 228.06 136.60C229.40 136.60 230.58 137.35 230.58 139.43L230.58 144.29L229.83 144.29L229.83 139.55C229.83 138.21 229.28 137.34 227.97 137.34C226.18 137.34 225.57 138.83 225.57 140.46L225.57 144.29L224.82 144.29L224.82 138.68z"/><path fill="#ffffff" fill-rule="nonzero" d="M231.88 136.78L233.28 136.78L233.28 134.44L234.03 134.44L234.03 136.78L235.81 136.78L235.81 137.49L234.03 137.49L234.03 142.37C234.03 143.21 234.21 143.69 234.93 143.69C235.15 143.69 235.47 143.68 235.71 143.60L235.71 144.26C235.45 144.37 235.09 144.40 234.78 144.40C233.82 144.40 233.28 143.92 233.28 142.72L233.28 137.49L231.88 137.49L231.88 136.78z"/><path fill="#ffffff" fill-rule="nonzero" d="M237.45 140.54C237.45 142.33 238.41 143.77 240.01 143.77C241.63 143.77 242.54 142.43 242.54 140.54C242.54 138.77 241.64 137.31 239.98 137.31C238.26 137.31 237.45 138.74 237.45 140.54M243.34 140.52C243.34 142.61 242.18 144.48 239.95 144.48C237.92 144.48 236.66 142.81 236.66 140.54C236.66 138.39 237.84 136.60 240.02 136.60C242.02 136.60 243.34 138.17 243.34 140.52z"/><path fill="#ffffff" fill-rule="nonzero" d="M245.36 142.22C245.61 143.20 246.30 143.78 247.49 143.78C248.83 143.78 249.37 143.17 249.37 142.33C249.37 141.47 249.01 141.05 247.32 140.64C245.39 140.18 244.90 139.59 244.90 138.60C244.90 137.56 245.69 136.60 247.38 136.60C249.08 136.60 249.89 137.64 250.01 138.71L249.26 138.71C249.13 138.08 248.63 137.29 247.35 137.29C246.05 137.29 245.67 137.94 245.67 138.54C245.67 139.23 246.03 139.58 247.52 139.94C249.64 140.45 250.16 141.14 250.16 142.27C250.16 143.63 249.05 144.47 247.47 144.47C245.76 144.47 244.80 143.57 244.59 142.22L245.36 142.22z"/></svg>