<svg xmlns="http://www.w3.org/2000/svg" viewBox="0 0 112.50 20.35"><path fill="#526E4E" fill-rule="nonzero" d="M23.68 3.04C24.43 2.76 25.32 2.48 26.30 2.27C27.29 2.06 28.37 1.93 29.46 1.91C30.55 1.89 31.65 2.00 32.69 2.20C33.73 2.39 34.71 2.68 35.57 2.99C35.68 3.04 35.79 3.08 35.90 3.12C31.76 3.16 27.37 3.20 23.15 3.24C23.32 3.18 23.49 3.11 23.68 3.04M54.35 10.06C53.24 10.52 52.54 10.36 52.54 10.36C50.30 9.49 52.81 9.21 52.81 9.21C53.61 9.34 53.86 9.73 54.35 10.06M58.61 9.97C59.07 9.46 59.62 9.10 60.17 9.07C62.08 9.10 61.56 10.05 60.21 10.19C59.85 10.26 59.20 10.13 58.61 9.97M71.94 4.10C71.55 4.32 71.11 4.58 70.61 4.90C69.85 5.36 68.98 5.93 68.06 6.54C67.14 7.14 66.17 7.79 65.18 8.41C64.19 9.04 63.19 9.63 62.21 10.11C61.23 10.59 60.28 10.96 59.44 11.19C58.84 11.36 58.29 11.45 57.85 11.50C58.03 10.85 58.22 10.37 58.40 10.16C58.95 10.41 59.60 10.50 60.20 10.47C62.50 10.46 62.43 8.55 59.68 8.67C58.73 8.69 58.07 9.04 57.61 9.51C57.41 9.39 57.21 9.35 57.12 9.23C57.47 8.76 57.68 8.24 57.69 7.60C57.70 6.95 57.41 6.35 57.00 5.83C56.54 5.27 56.25 4.83 56.25 4.83C56.25 4.83 55.52 5.63 54.92 6.40C54.85 6.57 54.78 6.75 54.74 6.95C54.44 8.22 55.17 8.64 55.91 9.29C55.56 9.64 55.51 9.56 55.10 9.76C54.02 8.94 52.92 8.93 52.92 8.93C49.50 9.28 51.93 10.82 53.39 10.85C53.94 10.85 53.91 11.02 54.66 10.68C54.80 10.83 54.93 11.12 55.05 11.51C54.59 11.46 54.02 11.37 53.38 11.19C52.54 10.96 51.59 10.59 50.61 10.11C49.63 9.63 48.63 9.04 47.64 8.41C46.65 7.79 45.68 7.14 44.76 6.54C43.84 5.93 42.97 5.36 42.21 4.90C41.71 4.58 41.27 4.32 40.89 4.10C48.26 4.17 54.26 4.22 56.25 4.22C58.27 4.22 64.41 4.17 71.94 4.10M77.25 2.99C78.11 2.68 79.09 2.39 80.13 2.20C81.17 2.00 82.27 1.89 83.36 1.91C84.46 1.93 85.53 2.06 86.51 2.27C87.50 2.48 88.39 2.76 89.14 3.04C89.34 3.11 89.52 3.18 89.70 3.25C85.46 3.21 81.06 3.17 76.89 3.13C77.01 3.09 77.13 3.04 77.25 2.99M55.54 7.21C55.55 6.66 55.91 6.14 56.42 5.71C56.77 6.04 57.01 6.36 57.00 6.72C57.04 7.60 56.78 8.23 56.42 8.70C55.88 8.29 55.54 7.77 55.54 7.21M56.86 9.42L57.41 9.75C56.70 10.49 56.58 11.45 56.58 11.45C56.29 10.97 55.99 10.57 55.70 10.28C56.15 10.05 56.56 9.74 56.86 9.42M0.00 3.56C0.00 3.58 1.41 3.62 3.78 3.66C3.57 3.66 3.36 3.67 3.14 3.67C6.52 3.67 8.54 4.40 8.54 5.62C8.54 4.80 9.46 4.20 11.09 3.89C12.92 4.37 13.98 5.58 13.98 7.33C13.98 5.50 15.15 4.27 17.14 3.84C18.54 3.86 19.99 3.88 21.46 3.89C21.32 3.98 21.24 4.04 21.24 4.05C21.25 4.06 21.39 4.00 21.63 3.89C27.05 3.96 32.82 4.02 38.09 4.07C38.51 4.28 38.83 4.44 39.02 4.54C39.50 4.77 40.78 5.40 42.40 6.32C43.21 6.78 44.10 7.30 45.04 7.84C45.98 8.38 46.96 8.95 47.95 9.47C48.94 9.98 49.94 10.46 50.91 10.82C51.88 11.19 52.81 11.44 53.61 11.57C54.19 11.66 54.69 11.70 55.10 11.70C55.28 12.30 55.43 13.09 55.58 13.94C55.56 13.92 55.55 13.90 55.54 13.88C55.06 13.17 54.34 12.50 53.47 12.06C53.04 11.83 52.56 11.66 52.08 11.55C51.59 11.44 51.07 11.41 50.57 11.45C49.57 11.53 48.65 11.93 47.97 12.47C47.28 13.01 46.84 13.66 46.58 14.22C46.45 14.50 46.37 14.76 46.32 14.97C46.26 15.19 46.23 15.38 46.22 15.51C46.19 15.76 46.18 16.25 46.35 16.86C46.53 17.47 46.92 18.19 47.62 18.76C47.96 19.05 48.38 19.29 48.84 19.45C49.07 19.53 49.31 19.59 49.56 19.63C49.81 19.67 50.08 19.68 50.34 19.66C50.87 19.62 51.39 19.45 51.84 19.17C52.29 18.89 52.65 18.49 52.90 18.05C53.02 17.83 53.12 17.59 53.18 17.35C53.24 17.11 53.27 16.86 53.25 16.61C53.23 16.12 53.04 15.65 52.76 15.29C52.48 14.93 52.10 14.66 51.71 14.52C51.52 14.44 51.32 14.40 51.13 14.37C50.93 14.35 50.74 14.36 50.56 14.39C50.21 14.45 49.91 14.61 49.70 14.78C49.48 14.95 49.34 15.15 49.25 15.32C49.16 15.49 49.13 15.63 49.11 15.73C49.09 15.83 49.09 15.88 49.10 15.88C49.11 15.88 49.13 15.83 49.18 15.73C49.22 15.63 49.29 15.49 49.41 15.33C49.54 15.18 49.71 15.01 49.96 14.88C50.20 14.75 50.51 14.67 50.83 14.69C51.16 14.72 51.52 14.84 51.82 15.05C52.12 15.27 52.37 15.58 52.50 15.94C52.64 16.31 52.65 16.71 52.53 17.09C52.41 17.49 52.18 17.85 51.88 18.12C51.57 18.40 51.19 18.59 50.80 18.68C50.41 18.77 50.01 18.75 49.64 18.65C49.26 18.55 48.92 18.38 48.64 18.17C48.36 17.96 48.14 17.72 47.97 17.47C47.64 16.98 47.54 16.48 47.52 16.15C47.51 15.82 47.55 15.63 47.54 15.63C47.54 15.63 47.54 15.58 47.55 15.50C47.55 15.45 47.56 15.40 47.57 15.33C47.58 15.27 47.60 15.19 47.62 15.11C47.70 14.77 47.87 14.28 48.25 13.79C48.63 13.30 49.22 12.81 49.99 12.54C50.37 12.40 50.79 12.32 51.22 12.31C51.44 12.31 51.66 12.32 51.88 12.35C52.10 12.38 52.32 12.43 52.54 12.49C53.41 12.73 54.21 13.22 54.81 13.83C55.23 14.27 55.55 14.76 55.77 15.24C56.12 17.76 56.33 20.35 56.33 20.35C56.33 20.14 56.65 17.56 57.09 15.04C57.31 14.62 57.58 14.21 57.95 13.83C58.54 13.22 59.35 12.73 60.22 12.49C60.44 12.43 60.66 12.38 60.88 12.35C61.10 12.32 61.32 12.31 61.54 12.31C61.97 12.32 62.39 12.40 62.77 12.54C63.54 12.81 64.13 13.30 64.51 13.79C64.89 14.28 65.06 14.77 65.14 15.11C65.16 15.19 65.17 15.27 65.18 15.33C65.20 15.40 65.20 15.45 65.21 15.50C65.21 15.58 65.22 15.63 65.21 15.63C65.21 15.63 65.25 15.82 65.24 16.15C65.21 16.48 65.12 16.98 64.78 17.47C64.62 17.72 64.40 17.96 64.12 18.17C63.84 18.38 63.50 18.55 63.12 18.65C62.75 18.75 62.35 18.77 61.96 18.68C61.56 18.59 61.18 18.40 60.88 18.12C60.57 17.85 60.35 17.49 60.23 17.09C60.11 16.71 60.12 16.31 60.25 15.94C60.39 15.58 60.64 15.27 60.94 15.05C61.24 14.84 61.60 14.72 61.92 14.69C62.25 14.67 62.56 14.75 62.80 14.88C63.04 15.01 63.22 15.18 63.35 15.33C63.47 15.49 63.54 15.63 63.58 15.73C63.63 15.83 63.65 15.88 63.66 15.88C63.66 15.88 63.67 15.83 63.65 15.73C63.63 15.63 63.59 15.49 63.50 15.32C63.42 15.15 63.27 14.95 63.06 14.78C62.84 14.61 62.55 14.45 62.19 14.39C62.02 14.36 61.83 14.35 61.63 14.37C61.44 14.40 61.24 14.44 61.05 14.52C60.66 14.66 60.28 14.93 60.00 15.29C59.72 15.65 59.53 16.12 59.51 16.61C59.49 16.86 59.52 17.11 59.58 17.35C59.64 17.59 59.74 17.83 59.86 18.05C60.10 18.49 60.47 18.89 60.92 19.17C61.37 19.45 61.89 19.62 62.41 19.66C62.68 19.68 62.94 19.67 63.20 19.63C63.45 19.59 63.69 19.53 63.92 19.45C64.38 19.29 64.80 19.05 65.14 18.76C65.84 18.19 66.23 17.47 66.40 16.86C66.58 16.25 66.56 15.76 66.54 15.51C66.53 15.38 66.50 15.19 66.44 14.97C66.39 14.76 66.30 14.50 66.18 14.22C65.92 13.66 65.47 13.01 64.79 12.47C64.11 11.93 63.19 11.53 62.18 11.45C61.69 11.41 61.17 11.44 60.68 11.55C60.19 11.66 59.72 11.83 59.29 12.06C58.47 12.47 57.81 13.08 57.33 13.74C57.48 12.99 57.63 12.28 57.79 11.69C58.19 11.69 58.67 11.66 59.21 11.57C60.01 11.44 60.94 11.19 61.91 10.82C62.87 10.46 63.88 9.98 64.87 9.47C65.86 8.95 66.84 8.38 67.78 7.84C68.72 7.30 69.61 6.78 70.42 6.32C72.04 5.40 73.32 4.77 73.80 4.54C73.99 4.44 74.32 4.27 74.74 4.07C80.02 4.02 85.79 3.95 91.18 3.89C91.43 4.00 91.57 4.06 91.57 4.05C91.58 4.04 91.50 3.98 91.35 3.89C93.29 3.87 95.17 3.84 96.97 3.82C99.02 4.23 100.23 5.47 100.23 7.33C100.23 5.59 101.28 4.38 103.10 3.90C104.71 4.21 105.62 4.80 105.62 5.62C105.62 4.40 107.65 3.67 111.02 3.67C110.62 3.67 110.25 3.65 109.89 3.63C111.55 3.60 112.50 3.58 112.50 3.56C112.50 3.53 110.92 3.50 108.30 3.46C106.59 3.17 105.62 2.56 105.62 1.71C105.62 2.50 104.77 3.08 103.26 3.40C103.16 3.40 103.06 3.40 102.96 3.39C101.23 2.89 100.23 1.70 100.23 0.00C100.23 1.64 99.29 2.80 97.66 3.34C95.32 3.31 92.83 3.28 90.27 3.26C89.90 3.06 89.47 2.85 88.97 2.63C88.15 2.27 87.16 1.90 86.06 1.63C84.96 1.35 83.75 1.18 82.53 1.15C81.31 1.12 80.09 1.24 78.97 1.45C77.84 1.67 76.82 1.97 75.96 2.27C75.10 2.56 74.41 2.86 73.93 3.07C73.90 3.08 73.88 3.09 73.85 3.10C64.02 3.01 56.20 2.94 56.25 2.93C56.25 2.93 48.60 3.00 38.95 3.09C38.93 3.08 38.91 3.08 38.89 3.07C38.41 2.86 37.72 2.56 36.86 2.27C36.00 1.97 34.98 1.67 33.85 1.45C32.70 1.23 31.87 1.11 30.29 1.15C29.07 1.18 27.85 1.35 26.76 1.63C25.66 1.90 24.67 2.27 23.85 2.63C23.36 2.85 22.93 3.06 22.57 3.25C20.49 3.27 18.44 3.29 16.49 3.31C14.90 2.77 13.98 1.62 13.98 0.00C13.98 1.68 13.01 2.85 11.31 3.37C11.14 3.37 10.96 3.37 10.79 3.38C9.35 3.06 8.54 2.48 8.54 1.71C8.54 2.53 7.63 3.13 6.00 3.43C2.31 3.49 0.00 3.53 0.00 3.56z"/></svg>